<svg xmlns="http://www.w3.org/2000/svg" viewBox="0 0 340 64" fill="none">
  <!-- Shield with negative cutout -->
  <path d="M4 6 L32 2 L60 6 L60 36 C60 52 32 62 32 62 C32 62 4 52 4 36 Z
           M11 11 L11 36 C11 47 32 55.5 32 55.5 C32 55.5 53 47 53 36 L53 11 L32 8 Z"
        fill="#00CC7A" fill-rule="evenodd"/>
  <!-- Crosshair forge mark -->
  <rect x="29" y="18" width="6" height="22" rx="1" fill="#00CC7A"/>
  <rect x="21" y="27" width="22" height="6" rx="1" fill="#00CC7A"/>
  <!-- Corner ticks -->
  <rect x="21" y="18" width="5" height="2" rx="0.5" fill="#00CC7A"/>
  <rect x="38" y="18" width="5" height="2" rx="0.5" fill="#00CC7A"/>
  <rect x="21" y="43" width="5" height="2" rx="0.5" fill="#00CC7A"/>
  <rect x="38" y="43" width="5" height="2" rx="0.5" fill="#00CC7A"/>

  <!-- Wordmark: THREATFORGE in one line -->
  <text x="76" y="42"
        font-family="'Share Tech Mono', 'Courier New', monospace"
        font-size="28"
        font-weight="700"
        letter-spacing="3"
        fill="#00CC7A">THREATFORGE</text>
</svg>
